<svg version="1.1" id="Layer_1" xmlns="http://www.w3.org/2000/svg" xmlns:xlink="http://www.w3.org/1999/xlink" x="0px" y="0px"
	 width="100%" viewBox="0 0 496 496" enable-background="new 0 0 496 496" xml:space="preserve">
<path fill="#000000" opacity="1.000000" stroke="none" 
	d="
M282.888947,281.948700 
	C289.161438,276.469604 290.720520,269.879028 289.118744,262.277985 
	C287.590332,255.025253 283.633881,248.716461 281.274872,241.788666 
	C280.523651,239.582550 278.693848,239.665176 276.757385,239.670975 
	C267.188385,239.699646 259.144867,236.507278 253.601212,228.300964 
	C252.950592,227.337860 252.339554,226.334686 251.834259,225.290085 
	C251.157394,223.890717 250.600922,222.371750 252.477890,221.434708 
	C254.077164,220.636307 254.998108,221.814667 255.716827,222.942459 
	C257.335388,225.482315 259.035706,227.944061 261.337646,229.921036 
	C264.450989,232.594925 268.039978,234.219727 272.129974,234.691498 
	C276.350800,235.178360 280.346161,235.437103 280.039337,229.217773 
	C279.987579,228.168213 280.799377,227.037735 281.328644,226.004288 
	C284.017822,220.753036 288.998260,218.552811 292.612488,220.979279 
	C296.134674,223.343948 296.339447,229.173157 292.993774,233.528336 
	C292.290405,234.443939 291.521057,235.592758 290.532166,235.958633 
	C284.516998,238.184204 286.005463,241.960785 288.006073,246.201462 
	C290.702698,251.917542 293.472229,257.686371 294.197083,264.057098 
	C295.544830,275.902374 289.532227,285.793945 279.089691,289.336182 
	C267.294861,293.337158 258.089508,289.773682 250.467896,277.831451 
	C245.690247,284.965637 239.154175,289.581360 231.346054,292.474609 
	C229.569946,293.132690 229.364990,295.044708 228.703888,296.533783 
	C226.663300,301.130005 224.471207,305.632202 220.298218,308.731049 
	C215.167282,312.541260 209.203781,311.913849 206.218277,307.335388 
	C203.103195,302.558258 204.932419,296.438934 210.498398,293.393433 
	C214.341034,291.290863 218.563187,290.309326 222.862396,289.661713 
	C224.926147,289.350769 226.865723,288.953278 226.867325,285.881073 
	C221.348679,286.801025 216.097946,286.816559 212.923309,280.764069 
	C209.530075,282.786499 206.861359,285.723785 202.914764,286.235870 
	C198.485840,286.810608 195.532654,284.965973 194.242630,280.602295 
	C182.569412,289.884735 180.202499,286.630524 175.730255,280.939331 
	C165.772827,288.064117 164.512405,288.148285 158.592163,282.083740 
	C148.973373,288.226196 145.615143,288.056732 139.645721,280.951813 
	C137.667648,282.356232 135.811661,284.055176 133.647736,285.139801 
	C126.800011,288.572021 121.502525,285.230652 121.703506,277.650482 
	C121.869972,271.371948 124.518448,265.715851 126.533867,259.912842 
	C127.773262,256.344208 129.043198,252.786179 130.255234,249.348724 
	C129.543045,248.883835 129.295761,248.639847 129.000244,248.543015 
	C127.168556,247.942780 123.889694,249.218964 124.145485,245.838211 
	C124.349457,243.142258 127.180321,243.782852 129.047516,243.768692 
	C131.456360,243.750412 132.690872,242.551315 133.421402,240.446198 
	C134.402847,237.618042 135.398483,234.792267 136.496155,232.008118 
	C137.006500,230.713715 137.922165,229.566956 139.532196,230.182175 
	C141.044601,230.760086 141.244675,232.123962 140.800018,233.530319 
	C139.808090,236.667526 138.754456,239.785233 137.804077,242.673538 
	C138.852493,243.912048 139.924072,243.659271 140.879791,243.805084 
	C142.437088,244.042694 144.047012,244.442673 143.937347,246.380936 
	C143.818069,248.488983 141.935196,248.469543 140.516754,248.304459 
	C136.565811,247.844635 134.880295,249.850876 133.805878,253.360474 
	C131.614731,260.517914 129.031097,267.554504 126.785484,274.696350 
	C126.108406,276.849701 125.215714,279.587036 127.653847,281.092163 
	C130.261017,282.701630 132.479980,280.729767 134.255508,279.010376 
	C138.924393,274.489105 141.278107,268.545868 143.681366,262.694672 
	C145.831390,257.460022 147.729019,252.122162 149.783615,246.847580 
	C150.333313,245.436401 151.078537,243.781021 152.926834,244.322922 
	C155.154022,244.975906 154.676361,246.949707 154.114975,248.506836 
	C151.405609,256.021698 148.434448,263.445923 145.887497,271.013855 
	C144.734848,274.438812 142.204514,278.898315 147.133057,281.113495 
	C151.720871,283.175507 154.567261,279.344177 156.728149,275.938110 
	C160.679291,269.710083 162.865906,262.660156 165.453003,255.809616 
	C166.452927,253.161896 167.356125,250.476929 168.391434,247.843552 
	C169.035263,246.205963 169.459885,243.680084 171.812286,244.382614 
	C174.526596,245.193207 173.429230,247.638626 172.782867,249.453094 
	C169.768570,257.915070 166.237000,266.203522 164.196259,274.988556 
	C163.694138,277.150116 162.145798,279.933014 165.075256,281.183960 
	C167.842194,282.365479 169.677994,279.885529 171.193954,277.940308 
	C174.615280,273.550171 176.672638,268.430786 178.478958,263.228516 
	C179.688354,259.745422 181.236404,256.456818 183.186340,253.332672 
	C188.916122,244.152496 193.883774,242.476212 203.735657,246.761215 
	C205.180450,242.684570 206.481873,238.574677 208.113098,234.600128 
	C208.893463,232.698761 208.880920,228.974503 212.177734,230.238037 
	C214.784134,231.236969 213.090393,234.002853 212.431122,235.949707 
	C208.533905,247.458542 204.556305,258.940216 200.683945,270.457336 
	C199.999451,272.493164 199.581894,274.636047 199.230331,276.760803 
	C198.960495,278.391663 198.736053,280.225464 200.540070,281.217285 
	C202.234329,282.148804 203.794998,281.171112 205.243500,280.399017 
	C207.692398,279.093719 209.098450,276.769073 210.553329,274.537659 
	C215.614807,266.774658 218.041367,257.863800 221.457809,249.384354 
	C221.830826,248.458511 222.126709,247.499725 222.533463,246.589783 
	C223.165039,245.176956 223.950928,243.677139 225.829071,244.454041 
	C227.623260,245.196228 227.386536,246.824203 226.843811,248.313461 
	C224.221664,255.508621 221.557388,262.688416 218.934341,269.883270 
	C218.365555,271.443420 217.692627,273.010376 217.443604,274.631927 
	C217.056656,277.151642 217.011688,279.801147 219.796616,281.149139 
	C222.437775,282.427490 224.691666,281.324280 226.532089,279.385010 
	C229.667694,276.080963 231.920197,272.179657 233.585388,267.974274 
	C236.220413,261.319611 238.695389,254.601776 241.284943,247.928864 
	C241.922318,246.286438 242.405045,243.764114 244.738449,244.535034 
	C247.364532,245.402649 246.276978,247.814224 245.612396,249.660477 
	C241.778351,260.311676 237.887177,270.942291 234.038849,281.588379 
	C233.543991,282.957367 233.185455,284.375671 232.608307,286.285706 
	C235.667191,285.920624 237.597702,284.427612 239.453171,282.880493 
	C245.103226,278.169342 248.834045,272.236145 251.169769,265.240234 
	C254.469421,255.357162 264.202057,249.840759 272.528961,252.793854 
	C277.500793,254.557098 281.134827,259.715698 280.892853,264.714508 
	C280.816254,266.296936 280.420593,267.858795 278.539795,268.000702 
	C276.843445,268.128693 276.217743,266.655975 276.147888,265.332703 
	C275.879059,260.239197 273.384277,257.138580 268.280273,256.680725 
	C263.454346,256.247772 257.921417,260.537384 256.205688,265.593536 
	C254.197845,271.510468 254.128220,277.156891 259.072601,281.736542 
	C264.573914,286.832062 271.122070,286.784668 277.813873,284.798981 
	C279.517822,284.293396 281.005768,283.059753 282.888947,281.948700 
M182.476685,266.010986 
	C181.922440,268.268829 181.312027,270.514709 180.827591,272.787415 
	C180.160400,275.917480 179.275421,279.673065 182.809738,281.193481 
	C186.015457,282.572601 188.230911,279.461273 190.098846,277.164185 
	C191.449387,275.503357 192.608109,273.618958 193.511597,271.675812 
	C195.612808,267.156647 197.449036,262.514923 199.507401,257.974884 
	C200.883926,254.938705 201.203629,251.976974 198.154312,249.992325 
	C194.850204,247.841873 192.076691,249.651749 189.876419,252.211166 
	C186.584000,256.040985 184.363083,260.502106 182.476685,266.010986 
M214.968338,306.312103 
	C220.248871,304.307312 222.656815,300.125183 224.225037,294.500549 
	C219.846848,294.871338 216.178711,295.573792 212.854797,297.418457 
	C210.759918,298.581055 209.049850,300.387390 209.560577,303.005768 
	C210.021545,305.369110 211.817459,306.540283 214.968338,306.312103 
M285.828461,227.337830 
	C285.253082,229.144501 283.785767,230.807297 284.948212,233.108307 
	C287.166351,233.003738 288.581696,231.687836 289.697998,230.013992 
	C290.539825,228.751724 291.303802,227.189621 290.038269,225.921707 
	C288.605316,224.486023 287.342865,225.652817 285.828461,227.337830 
z"/>
<path fill="#000000" opacity="1.000000" stroke="none" 
	d="
M367.024658,246.089188 
	C367.526520,244.699051 368.361603,243.851624 369.343842,243.982468 
	C375.215454,244.764618 376.394165,240.638977 377.910370,236.410080 
	C378.767426,234.019699 378.811035,229.214294 382.270325,230.406616 
	C386.351013,231.813080 382.548279,235.482147 382.240784,238.147644 
	C382.055389,239.754684 380.849243,241.183960 381.267639,243.193512 
	C381.773621,243.348343 382.358917,243.618698 382.968903,243.696884 
	C384.746979,243.924805 387.103271,243.621063 387.113495,246.182343 
	C387.124634,248.979660 384.582184,248.435577 382.943512,248.324677 
	C379.766541,248.109695 378.115326,249.299896 377.156647,252.398880 
	C374.896057,259.706299 372.232941,266.888428 369.908447,274.177338 
	C369.172363,276.485504 368.081787,279.528717 370.621979,281.052063 
	C373.562622,282.815521 375.948761,280.384613 377.938812,278.365082 
	C380.782623,275.479095 382.459015,271.817230 384.309753,268.270264 
	C385.175323,266.611359 385.963989,263.902283 388.525665,265.314240 
	C390.981659,266.667938 389.260681,268.850983 388.440521,270.561127 
	C386.202209,275.228271 383.778992,279.784790 379.681305,283.173798 
	C373.390442,288.376709 367.602814,287.227844 363.926910,279.793243 
	C360.161713,280.529144 356.291595,281.422302 352.423645,279.628174 
	C350.959778,278.949188 350.139801,280.542572 349.112488,281.336548 
	C347.278748,282.753784 345.483734,284.330353 343.423645,285.324677 
	C337.639099,288.116669 333.559875,285.949463 330.926605,278.743744 
	C326.909058,279.929077 322.909851,282.026642 318.532074,279.801605 
	C317.053436,279.050049 316.160065,280.554077 315.222809,281.453003 
	C310.250580,286.221863 304.762146,288.508240 297.718140,284.584625 
	C295.391327,291.096313 293.222015,297.339233 290.909210,303.528503 
	C290.266296,305.248962 290.000763,308.148743 287.235077,307.207977 
	C284.608307,306.314423 285.800629,303.899017 286.457336,302.073914 
	C292.879089,284.226746 299.287781,266.374512 305.839417,248.574905 
	C306.745514,246.113251 307.205933,241.683792 311.746948,245.554184 
	C312.770233,246.426392 313.894775,245.121613 314.945862,244.754974 
	C321.238678,242.559921 325.787018,245.575455 326.316437,252.285355 
	C326.845734,258.993896 324.545807,265.051178 322.085785,271.081879 
	C321.598511,272.276367 320.628723,273.367432 321.248535,275.100006 
	C324.578278,276.806519 327.121307,275.245422 329.331146,272.730408 
	C331.460358,270.307190 332.510345,267.304321 333.591461,264.319580 
	C335.587708,258.808319 338.148407,253.573212 342.021088,249.121277 
	C346.021637,244.522293 351.017151,243.030975 355.309540,244.915451 
	C359.590454,246.794907 361.101044,250.634659 360.390411,257.245239 
	C359.727386,263.412689 356.783081,268.865967 354.612579,274.678375 
	C358.988892,277.009338 361.690063,275.319427 363.846863,272.116211 
	C368.558868,265.118195 370.430511,256.995148 373.183411,249.433655 
	C371.296509,247.308807 367.920197,249.667450 367.024658,246.089188 
M338.726593,264.258606 
	C337.351990,268.519470 335.879791,272.755188 336.262848,277.354858 
	C336.485657,280.030487 337.420715,281.946594 340.552124,281.416748 
	C344.434479,280.759857 348.301086,275.679810 348.022522,271.694672 
	C347.857300,269.330719 347.732208,265.773041 349.807281,265.488251 
	C356.529449,264.565704 355.095367,259.487457 355.728455,255.485992 
	C356.093597,253.178375 355.962830,250.668976 353.273438,249.552460 
	C350.406067,248.362076 348.108673,249.589523 346.155731,251.662292 
	C342.915680,255.101089 340.851593,259.253052 338.726593,264.258606 
M302.734711,272.225861 
	C302.400635,273.335388 302.030548,274.435608 301.740448,275.556549 
	C301.228546,277.534363 300.859497,279.650452 302.703705,281.061554 
	C304.506897,282.441193 306.551178,281.786377 308.303162,280.722015 
	C311.813934,278.589172 314.779633,276.188324 313.857544,271.259735 
	C313.442657,269.042084 313.468781,265.513367 315.932159,265.260956 
	C322.065491,264.632538 320.624542,259.748657 321.470917,256.441589 
	C322.112946,253.932968 322.686859,250.264603 319.223633,249.111633 
	C316.155518,248.090179 314.106598,250.764267 312.223724,252.854492 
	C311.456451,253.706299 310.897064,254.751526 310.281647,255.732895 
	C307.182800,260.674377 305.072144,266.071564 302.734711,272.225861 
z"/>
<path fill="#000000" opacity="1.000000" stroke="none" 
	d="
M112.832062,247.313568 
	C115.783592,254.414688 118.877998,261.013702 118.411629,268.705719 
	C117.867119,277.686523 113.922997,284.385101 105.881104,288.213470 
	C97.685287,292.115143 89.389893,292.035675 81.728783,286.625610 
	C75.535652,282.252197 72.962555,273.811401 75.117462,266.014252 
	C77.201889,258.472137 83.585472,252.848953 91.048637,251.980835 
	C98.140846,251.155869 105.251846,257.418335 105.144615,264.405518 
	C105.120644,265.967804 104.894775,267.541534 103.048805,267.898254 
	C101.594765,268.179260 100.943787,267.086060 100.774933,265.831390 
	C100.044724,260.405579 97.642113,256.551636 91.555351,256.851166 
	C85.480881,257.150085 80.257004,262.518829 79.356766,268.911316 
	C77.609543,281.318115 89.416039,289.591583 102.095238,284.845398 
	C111.292976,281.402435 115.696770,272.000641 113.173988,261.442688 
	C111.532852,254.574432 107.820587,248.534378 105.569534,241.915070 
	C104.726593,239.436371 102.673111,239.662613 100.614075,239.669540 
	C90.965668,239.701965 83.119926,236.103561 77.610725,227.972656 
	C76.959564,227.011627 76.313202,226.015244 75.878319,224.948151 
	C75.365105,223.688873 75.066940,222.260834 76.583733,221.424103 
	C78.148735,220.560791 79.147293,221.673462 79.864975,222.805939 
	C81.745316,225.772995 83.647675,228.686752 86.562538,230.789124 
	C89.032539,232.570602 91.741402,233.849167 94.692337,234.489426 
	C101.196701,235.900665 102.529694,235.067963 104.453323,228.819489 
	C104.794792,227.710266 105.167168,226.587280 105.706055,225.566071 
	C108.255066,220.735641 113.219833,218.703537 116.772881,220.972473 
	C120.084457,223.087219 120.465820,229.020020 117.519180,233.107651 
	C115.625999,235.733871 112.883499,237.333633 110.134048,238.708344 
	C109.946289,241.998581 111.714859,244.359909 112.832062,247.313568 
M114.245842,229.637665 
	C114.757462,228.055847 115.387688,226.459229 113.749519,225.130722 
	C109.527092,226.656921 108.678139,228.258392 109.458824,233.188171 
	C111.398689,232.883560 112.727577,231.685867 114.245842,229.637665 
z"/>
<path fill="#000000" opacity="1.000000" stroke="none" 
	d="
M407.599609,281.905914 
	C409.594086,280.027466 411.416473,279.965057 412.937256,281.838409 
	C413.816406,282.921326 413.795654,284.350128 412.969177,285.549438 
	C412.162903,286.719543 410.929321,287.430878 409.555389,286.906250 
	C407.432190,286.095581 406.445404,284.545624 407.599609,281.905914 
z"/>
<path fill="#000000" opacity="1.000000" stroke="none" 
	d="
M386.770691,281.217621 
	C389.010376,280.164886 390.701172,280.396179 391.757385,282.371613 
	C392.596100,283.940399 391.983765,285.288757 390.700500,286.333099 
	C389.710083,287.139130 388.554352,287.300171 387.454285,286.592041 
	C385.365509,285.247467 385.226959,283.470215 386.770691,281.217621 
z"/>
</svg>